<?xml version="1.0" encoding="utf-8"?>
<!-- Generator: Adobe Illustrator 16.0.0, SVG Export Plug-In . SVG Version: 6.00 Build 0)  -->
<!DOCTYPE svg PUBLIC "-//W3C//DTD SVG 1.1//EN" "http://www.w3.org/Graphics/SVG/1.1/DTD/svg11.dtd">
<svg version="1.1" id="Layer_1" xmlns="http://www.w3.org/2000/svg" xmlns:xlink="http://www.w3.org/1999/xlink" x="0px" y="0px"
	 width="329.7px" height="120.3px" viewBox="0 0 329.7 120.3" style="enable-background:new 0 0 329.7 120.3;" xml:space="preserve"
	>
<g style="display:none;">
	<defs>
		<rect id="SVGID_1_" width="329.7" height="120.3"/>
	</defs>
	<clipPath id="SVGID_2_" style="display:inline;">
		<use xlink:href="#SVGID_1_"  style="overflow:visible;"/>
	</clipPath>
	<path style="display:inline;clip-path:url(#SVGID_2_);fill:#FFFFFF;" d="M220.9,0c-0.5,19.2-1,38.4-1.5,57.6
		c-3.3-3.6-7.3-6.9-11.9-9.7c-2-12.2-4-24.3-6-36.5C207.3,7,213.8,3.1,220.9,0"/>
</g>
<g>
	<defs>
		<path id="SVGID_3_" d="M201.4,11.4c2,12.2,4,24.3,6,36.5c4.6,2.7,8.6,6,11.9,9.7c0.5-19.2,1-38.4,1.5-57.6
			C213.8,3.1,207.3,7,201.4,11.4"/>
	</defs>
	<clipPath id="SVGID_4_">
		<use xlink:href="#SVGID_3_"  style="overflow:visible;"/>
	</clipPath>
	
		<linearGradient id="SVGID_5_" gradientUnits="userSpaceOnUse" x1="-456.5571" y1="460.7627" x2="-455.5571" y2="460.7627" gradientTransform="matrix(29.1131 -34.8189 -34.8189 -29.1131 29535.291 -2440.7402)">
		<stop  offset="0" style="stop-color:#EC1846"/>
		<stop  offset="1" style="stop-color:#B90D35"/>
	</linearGradient>
	<polygon style="clip-path:url(#SVGID_4_);fill:url(#SVGID_5_);" points="173.1,33.9 209.5,-9.6 249.3,23.7 212.9,67.2 	"/>
</g>
<g>
	<defs>
		<rect id="SVGID_6_" width="329.7" height="120.3"/>
	</defs>
	<clipPath id="SVGID_7_">
		<use xlink:href="#SVGID_6_"  style="overflow:visible;"/>
	</clipPath>
	<path style="clip-path:url(#SVGID_7_);fill:#FFFFFF;" d="M253.3,6.8c-6.1,18-12.2,36-18.3,54.1c-2.1-4.4-4.9-8.8-8.4-12.9
		c1.7-12.1,3.3-24.3,5-36.4C238.4,9.2,245.7,7.6,253.3,6.8"/>
</g>
<g>
	<defs>
		<path id="SVGID_8_" d="M231.7,11.6c-1.7,12.1-3.3,24.3-5,36.4c3.5,4.1,6.3,8.5,8.4,12.9c6.1-18,12.2-36,18.3-54.1
			C245.7,7.6,238.4,9.2,231.7,11.6"/>
	</defs>
	<clipPath id="SVGID_9_">
		<use xlink:href="#SVGID_8_"  style="overflow:visible;"/>
	</clipPath>
	
		<linearGradient id="SVGID_10_" gradientUnits="userSpaceOnUse" x1="-458.3828" y1="461.248" x2="-457.3824" y2="461.248" gradientTransform="matrix(34.1188 -40.8056 -40.8056 -34.1188 34685.6602 -2915.2012)">
		<stop  offset="0" style="stop-color:#EC1846"/>
		<stop  offset="1" style="stop-color:#B90D35"/>
	</linearGradient>
	<polygon style="clip-path:url(#SVGID_9_);fill:url(#SVGID_10_);" points="200.1,38.6 237.6,-6.3 279.9,29 242.4,74 	"/>
</g>
<g>
	<defs>
		<rect id="SVGID_11_" width="329.7" height="120.3"/>
	</defs>
	<clipPath id="SVGID_12_">
		<use xlink:href="#SVGID_11_"  style="overflow:visible;"/>
	</clipPath>
	<path style="clip-path:url(#SVGID_12_);fill:#FFFFFF;" d="M152.7,22.5c11.2,15.3,22.5,30.6,33.7,46c-5.2-0.2-10.9,0.5-17,2.4
		c-9.3-7.8-18.5-15.5-27.8-23.3C144.5,38.9,148.2,30.4,152.7,22.5"/>
</g>
<g>
	<defs>
		<path id="SVGID_13_" d="M141.6,47.6c9.3,7.8,18.5,15.5,27.8,23.3c6.1-2,11.8-2.7,17-2.4c-11.2-15.3-22.5-30.6-33.7-46
			C148.2,30.4,144.5,38.9,141.6,47.6"/>
	</defs>
	<clipPath id="SVGID_14_">
		<use xlink:href="#SVGID_13_"  style="overflow:visible;"/>
	</clipPath>
	
		<linearGradient id="SVGID_15_" gradientUnits="userSpaceOnUse" x1="-447.5752" y1="457.9697" x2="-446.5752" y2="457.9697" gradientTransform="matrix(16.9083 -20.2221 -20.2221 -16.9083 16983.2012 -1249.2188)">
		<stop  offset="0" style="stop-color:#EC1846"/>
		<stop  offset="1" style="stop-color:#B90D35"/>
	</linearGradient>
	<polygon style="clip-path:url(#SVGID_14_);fill:url(#SVGID_15_);" points="117.8,51 160,0.4 210.2,42.4 168,92.9 	"/>
</g>
<g>
	<defs>
		<rect id="SVGID_16_" width="329.7" height="120.3"/>
	</defs>
	<clipPath id="SVGID_17_">
		<use xlink:href="#SVGID_16_"  style="overflow:visible;"/>
	</clipPath>
	<path style="clip-path:url(#SVGID_17_);fill:#FFFFFF;" d="M185,4.8c5.7,18.4,11.3,36.7,17,55.1c-4.4-2.2-9.4-3.7-15-4.4
		c-5.9-10.7-11.8-21.4-17.7-32.1C173.8,16.7,179,10.4,185,4.8"/>
</g>
<g>
	<defs>
		<path id="SVGID_18_" d="M169.3,23.4c5.9,10.7,11.8,21.4,17.7,32.1c5.6,0.7,10.6,2.2,15,4.4c-5.7-18.4-11.3-36.7-17-55.1
			C179,10.4,173.8,16.7,169.3,23.4"/>
	</defs>
	<clipPath id="SVGID_19_">
		<use xlink:href="#SVGID_18_"  style="overflow:visible;"/>
	</clipPath>
	
		<linearGradient id="SVGID_20_" gradientUnits="userSpaceOnUse" x1="-453.9756" y1="460.0059" x2="-452.9756" y2="460.0059" gradientTransform="matrix(24.1109 -28.8364 -28.8364 -24.1109 24385.5 -1954.5605)">
		<stop  offset="0" style="stop-color:#EC1846"/>
		<stop  offset="1" style="stop-color:#B90D35"/>
	</linearGradient>
	<polygon style="clip-path:url(#SVGID_19_);fill:url(#SVGID_20_);" points="142.2,37.2 182.8,-11.3 229.1,27.5 188.6,76 	"/>
</g>
<g>
	<defs>
		<rect id="SVGID_21_" width="329.7" height="120.3"/>
	</defs>
	<clipPath id="SVGID_22_">
		<use xlink:href="#SVGID_21_"  style="overflow:visible;"/>
	</clipPath>
	<path style="clip-path:url(#SVGID_22_);fill:#FFFFFF;" d="M324,78.1c-18.3,5.7-36.5,11.5-54.8,17.2c2.2-4.2,3.8-9,4.8-14.1
		c10.7-5.8,21.4-11.6,32.2-17.3C312.4,67.8,318.4,72.5,324,78.1"/>
</g>
<g>
	<defs>
		<path id="SVGID_23_" d="M274,81.3c-1,5.1-2.6,9.8-4.8,14.1c18.3-5.8,36.5-11.5,54.8-17.2c-5.6-5.6-11.6-10.3-17.8-14.2
			C295.5,69.7,284.8,75.5,274,81.3"/>
	</defs>
	<clipPath id="SVGID_24_">
		<use xlink:href="#SVGID_23_"  style="overflow:visible;"/>
	</clipPath>
	
		<linearGradient id="SVGID_25_" gradientUnits="userSpaceOnUse" x1="-457.4224" y1="461.0586" x2="-456.4224" y2="461.0586" gradientTransform="matrix(31.289 -37.4212 -37.4212 -31.289 31843.2617 -2588.9258)">
		<stop  offset="0" style="stop-color:#EC1846"/>
		<stop  offset="1" style="stop-color:#B90D35"/>
	</linearGradient>
	<polygon style="clip-path:url(#SVGID_24_);fill:url(#SVGID_25_);" points="253.8,82.4 291.8,37 339.5,76.9 301.5,122.3 	"/>
</g>
<g>
	<defs>
		<rect id="SVGID_26_" width="329.7" height="120.3"/>
	</defs>
	<clipPath id="SVGID_27_">
		<use xlink:href="#SVGID_26_"  style="overflow:visible;"/>
	</clipPath>
	<path style="clip-path:url(#SVGID_27_);fill:#FFFFFF;" d="M329.7,111c-19.2,0.1-38.5,0.2-57.7,0.3c3.5-3.5,6.5-7.6,9-12.2
		c12.1-2.4,24.1-4.8,36.2-7.2C322,97.4,326.2,103.8,329.7,111"/>
</g>
<g>
	<defs>
		<path id="SVGID_28_" d="M281,99c-2.5,4.6-5.6,8.7-9,12.2c19.2-0.1,38.4-0.2,57.7-0.3v-0.1c-3.5-7.1-7.7-13.5-12.5-19
			C305.1,94.2,293.1,96.6,281,99"/>
	</defs>
	<clipPath id="SVGID_29_">
		<use xlink:href="#SVGID_28_"  style="overflow:visible;"/>
	</clipPath>
	
		<linearGradient id="SVGID_30_" gradientUnits="userSpaceOnUse" x1="-456.127" y1="460.6797" x2="-455.127" y2="460.6797" gradientTransform="matrix(28.1404 -33.6555 -33.6555 -28.1404 28624.2148 -2266.0332)">
		<stop  offset="0" style="stop-color:#EC1846"/>
		<stop  offset="1" style="stop-color:#B90D35"/>
	</linearGradient>
	<polygon style="clip-path:url(#SVGID_29_);fill:url(#SVGID_30_);" points="262.5,103.3 295.7,63.5 339.2,99.8 305.9,139.6 	"/>
</g>
<g>
	<defs>
		<rect id="SVGID_31_" width="329.7" height="120.3"/>
	</defs>
	<clipPath id="SVGID_32_">
		<use xlink:href="#SVGID_31_"  style="overflow:visible;"/>
	</clipPath>
	<path style="clip-path:url(#SVGID_32_);fill:#FFFFFF;" d="M283.5,23.4c-11.3,15.2-22.6,30.3-33.9,45.5c-0.7-4.8-2.1-9.7-4.2-14.6
		c5.3-10.9,10.5-21.9,15.8-32.8C268.4,21.3,275.9,21.9,283.5,23.4"/>
</g>
<g>
	<defs>
		<path id="SVGID_33_" d="M261.2,21.5c-5.3,10.9-10.5,21.9-15.8,32.8c2.1,4.9,3.5,9.9,4.2,14.6c11.3-15.2,22.6-30.3,33.9-45.5
			c-6.8-1.3-13.5-2-20-2C262.8,21.4,262,21.5,261.2,21.5"/>
	</defs>
	<clipPath id="SVGID_34_">
		<use xlink:href="#SVGID_33_"  style="overflow:visible;"/>
	</clipPath>
	
		<linearGradient id="SVGID_35_" gradientUnits="userSpaceOnUse" x1="-459.0239" y1="461.4844" x2="-458.0235" y2="461.4844" gradientTransform="matrix(36.3112 -43.4278 -43.4278 -36.3112 36955.7656 -3110.8301)">
		<stop  offset="0" style="stop-color:#EC1846"/>
		<stop  offset="1" style="stop-color:#B90D35"/>
	</linearGradient>
	<polygon style="clip-path:url(#SVGID_34_);fill:url(#SVGID_35_);" points="222.1,49.4 261.1,2.7 306.9,41 267.9,87.6 	"/>
</g>
<g>
	<defs>
		<rect id="SVGID_36_" width="329.7" height="120.3"/>
	</defs>
	<clipPath id="SVGID_37_">
		<use xlink:href="#SVGID_36_"  style="overflow:visible;"/>
	</clipPath>
	<path style="clip-path:url(#SVGID_37_);fill:#FFFFFF;" d="M307.1,46.9c-15.4,11.1-30.7,22.2-46.1,33.4c0.7-4.7,0.8-9.7,0.1-15
		c8.3-8.8,16.5-17.7,24.8-26.5C293,40.6,300.1,43.3,307.1,46.9"/>
</g>
<g>
	<defs>
		<path id="SVGID_38_" d="M261.2,65.3c0.7,5.2,0.6,10.3-0.1,15c15.4-11.1,30.7-22.2,46.1-33.4c-7-3.6-14.1-6.3-21.2-8.1
			C277.7,47.6,269.4,56.4,261.2,65.3"/>
	</defs>
	<clipPath id="SVGID_39_">
		<use xlink:href="#SVGID_38_"  style="overflow:visible;"/>
	</clipPath>
	
		<linearGradient id="SVGID_40_" gradientUnits="userSpaceOnUse" x1="-458.7583" y1="461.4805" x2="-457.7583" y2="461.4805" gradientTransform="matrix(35.3706 -42.3027 -42.3027 -35.3706 36012.8555 -3000.873)">
		<stop  offset="0" style="stop-color:#EC1846"/>
		<stop  offset="1" style="stop-color:#B90D35"/>
	</linearGradient>
	<polygon style="clip-path:url(#SVGID_39_);fill:url(#SVGID_40_);" points="240.7,63.2 280,16.1 327.5,55.8 288.2,102.9 	"/>
</g>
<g>
	<defs>
		<rect id="SVGID_41_" width="329.7" height="120.3"/>
	</defs>
	<clipPath id="SVGID_42_">
		<use xlink:href="#SVGID_41_"  style="overflow:visible;"/>
	</clipPath>
	<path style="clip-path:url(#SVGID_42_);fill:#231F20;" d="M1.8,104.5c0.4,0.3,0.8,0.6,1.3,0.9c0.5,0.3,1,0.6,1.6,0.9
		c0.6,0.3,1.2,0.5,1.8,0.6c0.7,0.2,1.4,0.2,2.2,0.2c0.6,0,1.1-0.1,1.7-0.2c0.6-0.1,1-0.4,1.5-0.6c0.4-0.3,0.8-0.7,1.1-1.1
		c0.3-0.5,0.4-1.1,0.4-1.7c0-0.7-0.2-1.3-0.5-1.8c-0.3-0.5-0.7-0.9-1.2-1.3s-1.1-0.6-1.7-0.9c-0.6-0.2-1.3-0.5-2.1-0.7
		c-0.9-0.3-1.8-0.6-2.7-1s-1.7-0.8-2.4-1.4C2,95.8,1.4,95,1,94.1c-0.5-0.9-0.7-2-0.7-3.4c0-1.3,0.3-2.5,0.8-3.5
		c0.5-1,1.2-1.9,2.2-2.6c0.9-0.7,2-1.2,3.2-1.5c1.2-0.3,2.4-0.5,3.8-0.5c0.9,0,1.8,0.1,2.6,0.2c0.8,0.1,1.5,0.3,2.1,0.5
		c0.6,0.2,1.1,0.4,1.6,0.6c0.4,0.2,0.8,0.4,1,0.6c0.8,0.5,1.2,1.1,1.2,1.9c0,0.3-0.1,0.8-0.4,1.3c-0.3,0.6-0.7,1.1-1.2,1.7
		c-0.7-0.6-1.6-1.1-2.7-1.6S11.9,87,10.7,87c-0.5,0-1,0-1.5,0.1s-1,0.3-1.4,0.5c-0.4,0.2-0.8,0.6-1.1,1c-0.3,0.4-0.4,0.9-0.4,1.6
		c0,0.6,0.1,1.1,0.4,1.5c0.3,0.4,0.6,0.8,1.1,1.1c0.5,0.3,1,0.6,1.6,0.9c0.6,0.3,1.3,0.5,1.9,0.7c0.9,0.3,1.8,0.7,2.7,1.1
		c0.9,0.4,1.7,0.9,2.5,1.5c0.7,0.6,1.4,1.4,1.8,2.3c0.5,0.9,0.7,2,0.7,3.4c0,1.5-0.3,2.8-0.8,3.9c-0.5,1.1-1.2,2.1-2.1,2.8
		c-0.9,0.8-2,1.4-3.3,1.7c-1.3,0.4-2.7,0.6-4.2,0.6c-2,0-3.6-0.2-4.8-0.6c-1.2-0.4-2.1-0.8-2.7-1.1c-0.3-0.2-0.6-0.5-0.8-0.8
		c-0.2-0.3-0.3-0.7-0.3-1c0-0.5,0.2-1,0.6-1.7C0.9,105.7,1.3,105.1,1.8,104.5"/>
	<path style="clip-path:url(#SVGID_42_);fill:#231F20;" d="M33.6,99.5c0-0.6,0-1.2-0.1-1.7c0-0.5-0.2-1-0.3-1.3
		c-0.2-0.4-0.5-0.7-0.9-0.9c-0.4-0.2-1-0.3-1.7-0.3c-1,0-1.9,0.2-2.6,0.6c-0.7,0.4-1.1,1-1.1,1.6v13.4h-5.6V81.7
		c0,0,0.2-0.1,0.6-0.1c0.4,0,0.8-0.1,1.3-0.1c0.4,0,0.9,0,1.3,0.1c0.4,0.1,0.8,0.2,1.2,0.5c0.4,0.2,0.6,0.6,0.9,1
		c0.2,0.4,0.3,1,0.3,1.7V93c0.2-0.2,0.5-0.5,0.8-0.8c0.3-0.3,0.7-0.5,1.2-0.8c0.5-0.2,1-0.4,1.6-0.6c0.6-0.1,1.3-0.2,2.1-0.2
		c2,0,3.4,0.4,4.4,1.2c0.9,0.8,1.5,1.8,1.8,3.1c0.1,0.6,0.2,1.3,0.3,2.1c0,0.7,0.1,1.5,0.1,2.2v11.7h-5.6V99.5z"/>
	<path style="clip-path:url(#SVGID_42_);fill:#231F20;" d="M54.7,99c0-1.3-0.3-2.4-0.8-3.2c-0.5-0.8-1.4-1.2-2.8-1.2
		c-1.1,0-2,0.4-2.7,1.2c-0.7,0.8-1,1.9-1,3.3H54.7z M52.8,107.4c0.7,0,1.3-0.1,1.8-0.2c0.5-0.2,1-0.3,1.4-0.6
		c0.4-0.2,0.8-0.5,1.1-0.7c0.3-0.3,0.6-0.5,0.8-0.7c0.3,0.4,0.7,0.9,1,1.6c0.4,0.6,0.5,1.2,0.5,1.6c0,0.6-0.3,1.2-1,1.7
		c-0.6,0.4-1.4,0.8-2.5,1.1c-1.1,0.3-2.3,0.5-3.8,0.5c-1.3,0-2.6-0.2-3.8-0.5c-1.3-0.3-2.4-0.9-3.4-1.7c-1-0.8-1.8-1.9-2.4-3.3
		c-0.6-1.4-0.9-3.2-0.9-5.3c0-1.7,0.3-3.2,0.8-4.5c0.5-1.3,1.3-2.3,2.2-3.1c0.9-0.8,1.9-1.4,3-1.8c1.1-0.4,2.3-0.6,3.5-0.6
		c1.5,0,2.9,0.2,3.9,0.7c1.1,0.5,2,1.1,2.6,2c0.7,0.8,1.2,1.7,1.5,2.8c0.3,1.1,0.5,2.2,0.5,3.3v0.6c0,0.2,0,0.5,0,0.7
		c0,0.2,0,0.5,0,0.7c0,0.2,0,0.4-0.1,0.6H47.5c0.1,1.5,0.6,2.8,1.4,3.8C49.7,106.9,51,107.4,52.8,107.4"/>
	<path style="clip-path:url(#SVGID_42_);fill:#231F20;" d="M68.5,111.2c-0.1,0.1-0.4,0.1-0.8,0.1c-0.4,0-0.8,0-1.3,0
		c-0.5,0-0.9,0-1.3-0.1c-0.4-0.1-0.8-0.3-1.1-0.5s-0.6-0.6-0.8-1.1c-0.2-0.4-0.3-1-0.3-1.7V81.7c0,0,0.2-0.1,0.6-0.1
		c0.4,0,0.8-0.1,1.3-0.1c0.4,0,0.9,0,1.3,0.1c0.4,0.1,0.8,0.2,1.2,0.5c0.4,0.2,0.6,0.6,0.9,1c0.2,0.4,0.3,1,0.3,1.7V111.2z"/>
	<path style="clip-path:url(#SVGID_42_);fill:#231F20;" d="M83.5,111.1h-6l-6.8-19.5c0.9-0.4,1.9-0.5,3-0.5c0.7,0,1.2,0.1,1.6,0.3
		c0.4,0.2,0.8,0.5,1.1,0.8c0.3,0.3,0.5,0.7,0.7,1.2c0.2,0.5,0.4,1,0.5,1.6l3,10.7l3.2-10.8c0.2-0.6,0.3-1.1,0.5-1.6
		c0.2-0.5,0.4-0.9,0.7-1.2c0.3-0.3,0.6-0.6,1-0.7c0.4-0.2,0.9-0.2,1.5-0.2c0.6,0,1.1,0.1,1.6,0.2c0.5,0.1,0.9,0.2,1.2,0.4
		L83.5,111.1z"/>
	<path style="clip-path:url(#SVGID_42_);fill:#231F20;" d="M98.4,111.2c-0.1,0.1-0.4,0.1-0.7,0.1c-0.4,0-0.8,0-1.2,0
		c-0.6,0-1.1,0-1.5-0.1c-0.4-0.1-0.8-0.3-1.1-0.5c-0.3-0.3-0.6-0.6-0.7-1.1c-0.2-0.4-0.3-1-0.3-1.7V91.3c0,0,0.2-0.1,0.6-0.1
		c0.4,0,0.8-0.1,1.3-0.1s0.9,0,1.3,0.1c0.4,0.1,0.8,0.2,1.2,0.5c0.4,0.2,0.6,0.6,0.9,1c0.2,0.4,0.3,1,0.3,1.7V111.2z M98.5,84.7
		c0,0.9-0.3,1.6-0.9,2.2c-0.6,0.6-1.3,0.8-2.1,0.8c-0.9,0-1.6-0.3-2.2-0.8c-0.6-0.6-0.9-1.3-0.9-2.2c0-0.9,0.3-1.6,0.9-2.2
		c0.6-0.6,1.3-0.9,2.2-0.9c0.8,0,1.5,0.3,2.1,0.9C98.2,83,98.5,83.8,98.5,84.7"/>
	<path style="clip-path:url(#SVGID_42_);fill:#231F20;" d="M107.5,110.9h-5.6V91.3c0.1,0,0.3-0.1,0.5-0.1c0.2,0,0.4,0,0.6-0.1
		c0.2,0,0.5,0,0.8,0c0.9,0,1.6,0.2,2.3,0.5c0.6,0.3,1.1,0.9,1.2,1.7c0.5-0.6,1.2-1.2,2.2-1.8c1-0.5,2.3-0.8,3.9-0.8
		c2,0,3.4,0.4,4.4,1.2c0.9,0.8,1.6,1.8,1.8,3.1c0.1,0.6,0.2,1.3,0.3,2.1c0,0.7,0.1,1.5,0.1,2.2v11.7h-5.6V99.5c0-0.6,0-1.2-0.1-1.7
		c0-0.5-0.2-1-0.3-1.3c-0.2-0.4-0.5-0.7-0.9-0.9c-0.4-0.2-1-0.3-1.7-0.3c-1,0-1.9,0.2-2.7,0.6c-0.7,0.4-1.1,1-1.1,1.6V110.9z"/>
	<path style="clip-path:url(#SVGID_42_);fill:#231F20;" d="M128.1,100.9c0,1.9,0.3,3.5,0.9,4.6c0.6,1.1,1.7,1.7,3.3,1.7
		c1,0,1.7-0.2,2.3-0.6c0.6-0.4,0.8-0.9,0.8-1.5v-8.9c-0.2-0.2-0.6-0.5-1.1-0.8c-0.5-0.3-1.2-0.5-1.9-0.5
		C129.5,95,128.1,97,128.1,100.9 M140.7,109.4c0,1.6-0.2,3.1-0.5,4.5c-0.3,1.3-0.9,2.5-1.7,3.5c-0.8,1-1.8,1.7-3.1,2.2
		c-1.3,0.5-2.9,0.8-4.9,0.8c-1.7,0-3-0.1-4.1-0.4c-1.1-0.2-1.9-0.6-2.6-0.9c-0.6-0.3-0.9-0.6-1.1-1c-0.2-0.3-0.2-0.6-0.2-1
		c0-0.4,0.2-1,0.5-1.6c0.4-0.6,0.7-1.1,1.1-1.6c0.2,0.2,0.5,0.4,0.8,0.7c0.3,0.2,0.8,0.5,1.3,0.7s1.1,0.4,1.7,0.6
		c0.6,0.2,1.3,0.3,2.1,0.3c1.1,0,2-0.1,2.6-0.4c0.7-0.3,1.2-0.7,1.6-1.2c0.4-0.5,0.7-1.2,0.8-2c0.2-0.8,0.2-1.7,0.2-2.7v-0.7
		c-0.4,0.5-1,0.9-1.9,1.3c-0.9,0.4-1.9,0.6-3.2,0.6c-1,0-2-0.2-3-0.5c-1-0.3-1.8-0.9-2.6-1.6c-0.7-0.8-1.3-1.8-1.8-3
		c-0.4-1.3-0.7-2.8-0.7-4.7c0-1.9,0.2-3.5,0.7-4.9c0.5-1.3,1.1-2.4,1.8-3.3c0.8-0.8,1.6-1.5,2.6-1.8c1-0.4,2-0.6,3.1-0.6
		c1.2,0,2.2,0.2,3,0.6c0.8,0.4,1.4,0.9,1.9,1.6c0.2-0.6,0.6-1.1,1.2-1.4c0.6-0.3,1.3-0.4,2.1-0.4c0.2,0,0.5,0,0.7,0s0.5,0,0.7,0.1
		c0.2,0,0.4,0.1,0.6,0.1V109.4z"/>
	<path style="clip-path:url(#SVGID_42_);fill:#231F20;" d="M143.2,106.6c0.2,0.3,0.5,0.5,0.9,0.9c0.4,0.3,0.9,0.6,1.5,0.9
		c0.6,0.3,1.3,0.6,2.1,0.8c0.8,0.2,1.7,0.3,2.7,0.3c1.2,0,2.3-0.2,3.1-0.5c0.8-0.3,1.5-0.8,2-1.3c0.5-0.5,0.8-1.1,1-1.8
		c0.2-0.7,0.3-1.3,0.3-2c0-0.9-0.1-1.7-0.4-2.3c-0.2-0.6-0.6-1.2-1.1-1.7c-0.5-0.5-1.1-0.9-1.8-1.2c-0.7-0.3-1.6-0.6-2.6-1
		c-1.1-0.3-2.1-0.7-3-1.1c-1-0.4-1.8-0.9-2.6-1.5c-0.7-0.6-1.3-1.3-1.7-2.1c-0.4-0.8-0.6-1.9-0.6-3.1c0-1.2,0.2-2.2,0.6-3.1
		c0.4-0.9,1-1.7,1.8-2.3c0.7-0.6,1.6-1.1,2.7-1.4c1-0.3,2.2-0.5,3.4-0.5c0.9,0,1.8,0.1,2.5,0.3c0.7,0.2,1.4,0.4,2,0.6
		c0.6,0.2,1,0.4,1.4,0.7c0.3,0.2,0.6,0.4,0.8,0.5c0.4,0.3,0.5,0.6,0.5,1c0,0.3-0.2,0.8-0.7,1.5h-0.5c-0.2-0.2-0.4-0.4-0.7-0.7
		c-0.3-0.3-0.7-0.5-1.2-0.8c-0.5-0.3-1.1-0.5-1.8-0.7c-0.7-0.2-1.4-0.3-2.3-0.3c-1.1,0-2.1,0.1-2.8,0.4c-0.7,0.3-1.3,0.7-1.8,1.1
		c-0.5,0.5-0.8,1-1,1.6c-0.2,0.6-0.3,1.2-0.3,1.8c0,0.8,0.1,1.5,0.4,2.1c0.3,0.6,0.7,1.1,1.2,1.5c0.5,0.4,1.2,0.8,2,1.1
		c0.8,0.3,1.7,0.7,2.7,1c1,0.3,2,0.7,2.9,1.1c0.9,0.4,1.7,1,2.4,1.6c0.7,0.6,1.2,1.4,1.6,2.2c0.4,0.9,0.6,1.9,0.6,3.1
		c0,1.3-0.2,2.5-0.7,3.5c-0.4,1-1.1,1.9-1.8,2.5c-0.8,0.7-1.7,1.2-2.8,1.6c-1.1,0.4-2.3,0.5-3.7,0.5c-1.1,0-2.1-0.1-2.9-0.3
		c-0.9-0.2-1.6-0.4-2.2-0.6c-0.6-0.3-1.1-0.5-1.5-0.8c-0.4-0.3-0.6-0.5-0.8-0.6c-0.1-0.1-0.3-0.3-0.4-0.4c-0.1-0.2-0.2-0.3-0.2-0.5
		s0.1-0.4,0.2-0.7C142.7,107.3,142.9,106.9,143.2,106.6"/>
	<path style="clip-path:url(#SVGID_42_);fill:#231F20;" d="M167.3,115.2c-0.3,0.7-0.5,1.3-0.9,2c-0.3,0.6-0.7,1.2-1.2,1.7
		c-0.5,0.5-1,0.9-1.7,1.1c-0.7,0.3-1.4,0.4-2.3,0.4c-1.1,0-1.9-0.2-2.5-0.5c-0.5-0.3-0.8-0.6-0.8-1c0-0.3,0.1-0.6,0.3-0.9
		c0.2-0.3,0.3-0.5,0.5-0.7c0.1,0.1,0.4,0.4,0.9,0.7c0.4,0.3,1,0.5,1.8,0.5c0.9,0,1.6-0.3,2.2-1c0.5-0.6,1.1-1.7,1.7-3.3l1.2-3.2
		h-1.2l-6.8-19.2c0.2-0.1,0.3-0.1,0.5-0.1c0.2,0,0.4-0.1,0.6-0.1c0.7,0,1.2,0.2,1.5,0.6c0.3,0.4,0.6,1,0.8,1.6L167,109l5.4-15.4
		c0.2-0.7,0.5-1.2,0.9-1.5c0.4-0.4,0.8-0.5,1.4-0.5c0.2,0,0.4,0,0.6,0.1c0.2,0.1,0.3,0.1,0.5,0.2L167.3,115.2z"/>
	<path style="clip-path:url(#SVGID_42_);fill:#231F20;" d="M183.8,93.2c-0.5,0-0.9,0.1-1.4,0.2c-0.5,0.1-0.9,0.3-1.3,0.5
		c-0.4,0.2-0.8,0.6-1,1c-0.3,0.4-0.4,0.9-0.4,1.5c0,0.6,0.1,1.1,0.4,1.4c0.3,0.4,0.6,0.7,1.1,1c0.4,0.3,0.9,0.5,1.5,0.7
		c0.6,0.2,1.2,0.4,1.8,0.5c0.7,0.2,1.4,0.5,2.1,0.7c0.7,0.2,1.3,0.6,1.9,1c0.6,0.4,1,1,1.4,1.6c0.4,0.7,0.5,1.5,0.5,2.5
		c0,0.9-0.2,1.7-0.5,2.4c-0.4,0.7-0.8,1.3-1.5,1.8c-0.6,0.5-1.3,0.9-2.1,1.1c-0.8,0.2-1.7,0.4-2.6,0.4c-1.5,0-2.8-0.2-3.8-0.5
		c-1-0.3-1.8-0.6-2.1-0.9c-0.4-0.3-0.6-0.6-0.6-1c0-0.2,0.1-0.4,0.2-0.6c0.1-0.2,0.3-0.5,0.6-1c0.2,0.1,0.4,0.3,0.8,0.5
		c0.3,0.2,0.8,0.4,1.2,0.7c0.5,0.2,1,0.4,1.6,0.6c0.6,0.2,1.3,0.2,2,0.2c0.6,0,1.1-0.1,1.7-0.2c0.6-0.1,1-0.4,1.5-0.6
		c0.4-0.3,0.7-0.7,1-1.1s0.4-1,0.4-1.7c0-0.7-0.1-1.3-0.4-1.7c-0.3-0.5-0.6-0.8-1.1-1.1c-0.5-0.3-1-0.5-1.6-0.7
		c-0.6-0.2-1.2-0.4-1.9-0.5c-0.7-0.2-1.4-0.4-2.1-0.6c-0.7-0.2-1.3-0.6-1.8-1c-0.5-0.4-1-0.9-1.3-1.5s-0.5-1.4-0.5-2.3
		c0-0.9,0.2-1.6,0.6-2.2c0.4-0.6,0.9-1.2,1.5-1.6c0.6-0.4,1.3-0.8,2.1-1c0.8-0.2,1.6-0.3,2.4-0.3c1.4,0,2.5,0.2,3.4,0.5
		c0.9,0.4,1.6,0.7,2.1,1.2c0.3,0.2,0.5,0.4,0.6,0.6c0.1,0.2,0.2,0.4,0.2,0.6c0,0.2-0.1,0.5-0.2,0.7c-0.1,0.3-0.3,0.5-0.4,0.8H189
		c-0.6-0.7-1.2-1.3-2.1-1.8C186.1,93.4,185.1,93.2,183.8,93.2"/>
	<path style="clip-path:url(#SVGID_42_);fill:#231F20;" d="M201.4,91.5v1.9H195v12.2c0,1.3,0.2,2.2,0.7,2.9c0.5,0.7,1.3,1,2.3,1
		c0.6,0,1.1-0.1,1.5-0.3s0.8-0.4,1.1-0.6c0.4-0.3,0.7-0.6,1-0.9c0.4,0.4,0.6,0.7,0.8,0.9s0.2,0.4,0.2,0.5c0,0.2-0.1,0.4-0.3,0.6
		c-0.2,0.3-0.5,0.5-1,0.8c-0.4,0.3-0.9,0.5-1.5,0.7c-0.6,0.2-1.2,0.3-2,0.3c-1.4,0-2.4-0.3-3.2-0.8c-0.8-0.5-1.3-1.2-1.6-2.1
		c-0.2-0.5-0.3-1-0.3-1.6c-0.1-0.6-0.1-1.2-0.1-1.8V85.6h0.1c0.1,0,0.1,0,0.1,0c0,0,0.1,0,0.1,0c0.2,0,0.4,0,0.6,0.1
		c0.2,0,0.4,0.1,0.6,0.3c0.2,0.2,0.4,0.4,0.5,0.6c0.2,0.3,0.2,0.6,0.2,1.1v3.9H201.4z"/>
	<path style="clip-path:url(#SVGID_42_);fill:#231F20;" d="M216.9,99.9c0-0.9-0.1-1.8-0.2-2.6c-0.2-0.8-0.5-1.5-0.9-2.1
		c-0.4-0.6-1-1.1-1.7-1.5c-0.7-0.4-1.6-0.5-2.6-0.5c-1.7,0-3.1,0.6-4.2,1.7c-1.1,1.2-1.6,2.8-1.7,5H216.9z M218.8,108.6
		c0,0.2-0.2,0.5-0.5,0.9c-0.3,0.3-0.8,0.7-1.3,1c-0.6,0.3-1.3,0.6-2.1,0.8c-0.8,0.2-1.7,0.3-2.7,0.3c-1.3,0-2.6-0.2-3.7-0.6
		c-1.1-0.4-2.1-1-2.9-1.8s-1.4-1.9-1.9-3.2c-0.4-1.3-0.7-2.9-0.7-4.7c0-1.7,0.2-3.2,0.7-4.5c0.5-1.3,1.1-2.3,2-3.1
		c0.8-0.8,1.7-1.4,2.8-1.8c1-0.4,2.1-0.6,3.2-0.6c1.4,0,2.5,0.2,3.5,0.7c1,0.5,1.8,1.1,2.4,1.9c0.6,0.8,1.1,1.7,1.3,2.7
		c0.3,1,0.4,2.1,0.4,3.1c0,0.7,0,1.4-0.1,2.1h-13.6c0,1.2,0.2,2.2,0.4,3.2c0.3,1,0.7,1.8,1.2,2.5c0.6,0.7,1.2,1.2,2.1,1.6
		c0.8,0.4,1.8,0.6,2.9,0.6c0.9,0,1.6-0.1,2.2-0.3c0.6-0.2,1.2-0.4,1.6-0.7c0.5-0.3,0.8-0.5,1.1-0.8s0.5-0.5,0.6-0.7
		c0.3,0.3,0.5,0.6,0.7,0.9C218.7,108.2,218.8,108.4,218.8,108.6"/>
	<path style="clip-path:url(#SVGID_42_);fill:#231F20;" d="M224.4,93.8c0.6-0.7,1.5-1.3,2.5-1.8c1-0.5,2.4-0.8,4-0.8
		c1.5,0,2.7,0.3,3.6,0.8c0.9,0.5,1.5,1.2,1.9,1.9c0.7-0.7,1.6-1.3,2.6-1.9c1.1-0.5,2.4-0.8,4-0.8c1,0,1.8,0.1,2.5,0.4
		c0.7,0.2,1.3,0.6,1.8,1c0.5,0.4,0.9,0.9,1.1,1.4c0.3,0.5,0.5,1,0.6,1.6c0.1,0.6,0.2,1.2,0.3,1.8c0,0.6,0.1,1.3,0.1,1.9v11.8h-2.4
		V99.1c0-0.6,0-1.1-0.1-1.7c-0.1-0.6-0.2-1-0.3-1.5c-0.3-0.9-0.8-1.6-1.5-2c-0.7-0.4-1.7-0.6-3.1-0.6c-1.1,0-2.2,0.3-3.1,0.8
		c-0.9,0.5-1.6,1-2.1,1.5c0.1,0.6,0.2,1.1,0.3,1.7c0,0.6,0.1,1.2,0.1,1.8v11.8h-2.4V99.1c0-0.6,0-1.1-0.1-1.7
		c-0.1-0.6-0.1-1-0.3-1.5c-0.3-0.9-0.8-1.6-1.5-2c-0.7-0.4-1.7-0.6-3-0.6c-1.2,0-2.2,0.2-3.1,0.7c-0.9,0.5-1.6,1-2.1,1.6
		c-0.2,0.3-0.3,0.6-0.3,1v14.3h-2.4V91.5h0.2c0.6,0,1.1,0.2,1.5,0.5C224.2,92.3,224.4,92.9,224.4,93.8"/>
	<path style="clip-path:url(#SVGID_42_);fill:#231F20;" d="M258.4,93.2c-0.5,0-0.9,0.1-1.4,0.2c-0.5,0.1-0.9,0.3-1.3,0.5
		c-0.4,0.2-0.8,0.6-1,1c-0.3,0.4-0.4,0.9-0.4,1.5c0,0.6,0.1,1.1,0.4,1.4c0.3,0.4,0.6,0.7,1.1,1c0.4,0.3,0.9,0.5,1.5,0.7
		c0.6,0.2,1.2,0.4,1.8,0.5c0.7,0.2,1.4,0.5,2.1,0.7c0.7,0.2,1.3,0.6,1.9,1c0.6,0.4,1,1,1.4,1.6c0.4,0.7,0.5,1.5,0.5,2.5
		c0,0.9-0.2,1.7-0.5,2.4c-0.4,0.7-0.8,1.3-1.5,1.8c-0.6,0.5-1.3,0.9-2.1,1.1c-0.8,0.2-1.7,0.4-2.6,0.4c-1.5,0-2.8-0.2-3.8-0.5
		c-1-0.3-1.8-0.6-2.1-0.9c-0.4-0.3-0.6-0.6-0.6-1c0-0.2,0.1-0.4,0.2-0.6c0.1-0.2,0.3-0.5,0.6-1c0.2,0.1,0.4,0.3,0.8,0.5
		c0.3,0.2,0.8,0.4,1.2,0.7c0.5,0.2,1,0.4,1.6,0.6s1.3,0.2,2,0.2c0.6,0,1.1-0.1,1.7-0.2c0.6-0.1,1-0.4,1.5-0.6c0.4-0.3,0.7-0.7,1-1.1
		s0.4-1,0.4-1.7c0-0.7-0.1-1.3-0.4-1.7c-0.3-0.5-0.6-0.8-1.1-1.1c-0.5-0.3-1-0.5-1.6-0.7c-0.6-0.2-1.2-0.4-1.9-0.5
		c-0.7-0.2-1.4-0.4-2.1-0.6c-0.7-0.2-1.3-0.6-1.8-1c-0.5-0.4-1-0.9-1.3-1.5s-0.5-1.4-0.5-2.3c0-0.9,0.2-1.6,0.6-2.2
		c0.4-0.6,0.9-1.2,1.5-1.6c0.6-0.4,1.3-0.8,2.1-1c0.8-0.2,1.6-0.3,2.4-0.3c1.4,0,2.5,0.2,3.4,0.5c0.9,0.4,1.6,0.7,2.1,1.2
		c0.3,0.2,0.5,0.4,0.6,0.6c0.1,0.2,0.2,0.4,0.2,0.6c0,0.2-0.1,0.5-0.2,0.7c-0.1,0.3-0.3,0.5-0.4,0.8h-0.4c-0.6-0.7-1.2-1.3-2.1-1.8
		C260.7,93.4,259.6,93.2,258.4,93.2"/>
</g>
</svg>
